<svg width="100%" height="100%" viewBox="0 0 196 66" fill="none" xmlns="http://www.w3.org/2000/svg" preserveAspectRatio="xMidYMid meet">
<rect width="196" height="66" rx="20" fill="url(#paint0_radial)" fill-opacity="0.8"/>
<rect width="196" height="66" rx="20" fill="url(#paint1_linear)"/>
<path d="M71.1216 44H80.4327V41.4645H74.1969V29.4545H71.1216V44ZM95.2694 36.7273C95.2694 31.9688 92.3148 29.2557 88.4583 29.2557C84.5804 29.2557 81.6472 31.9688 81.6472 36.7273C81.6472 41.4645 84.5804 44.1989 88.4583 44.1989C92.3148 44.1989 95.2694 41.4858 95.2694 36.7273ZM92.1515 36.7273C92.1515 39.8097 90.6884 41.4787 88.4583 41.4787C86.2211 41.4787 84.7651 39.8097 84.7651 36.7273C84.7651 33.6449 86.2211 31.9759 88.4583 31.9759C90.6884 31.9759 92.1515 33.6449 92.1515 36.7273ZM107.192 34.1562H110.317C109.92 31.2798 107.384 29.2557 104.096 29.2557C100.253 29.2557 97.2917 32.0256 97.2917 36.7415C97.2917 41.3438 100.062 44.1989 104.16 44.1989C107.831 44.1989 110.452 41.8764 110.452 38.0483V36.2159H104.366V38.5312H107.491C107.448 40.3352 106.219 41.4787 104.174 41.4787C101.866 41.4787 100.41 39.7528 100.41 36.7131C100.41 33.6875 101.922 31.9759 104.145 31.9759C105.729 31.9759 106.802 32.7926 107.192 34.1562ZM126.129 36.7273C126.129 31.9688 123.174 29.2557 119.318 29.2557C115.44 29.2557 112.507 31.9688 112.507 36.7273C112.507 41.4645 115.44 44.1989 119.318 44.1989C123.174 44.1989 126.129 41.4858 126.129 36.7273ZM123.011 36.7273C123.011 39.8097 121.548 41.4787 119.318 41.4787C117.08 41.4787 115.624 39.8097 115.624 36.7273C115.624 33.6449 117.08 31.9759 119.318 31.9759C121.548 31.9759 123.011 33.6449 123.011 36.7273Z" fill="white"/>
<defs>
<radialGradient id="paint0_radial" cx="0" cy="0" r="1" gradientUnits="userSpaceOnUse" gradientTransform="rotate(18.6102) scale(206.814 99.285)">
<stop stop-color="#A934F1"/>
<stop offset="1" stop-color="#9467DD"/>
</radialGradient>
<linearGradient id="paint1_linear" x1="0" y1="0" x2="96.2243" y2="59.1779" gradientUnits="userSpaceOnUse">
<stop stop-color="white" stop-opacity="0.2"/>
<stop offset="0.383569" stop-color="white" stop-opacity="0.2"/>
<stop offset="0.383669" stop-color="white" stop-opacity="0.28"/>
<stop offset="0.805208" stop-color="white" stop-opacity="0"/>
</linearGradient>
</defs>
</svg>
